<?xml version="1.0" encoding="utf-8"?>
<!-- Generator: Adobe Illustrator 16.0.4, SVG Export Plug-In . SVG Version: 6.00 Build 0)  -->
<!DOCTYPE svg PUBLIC "-//W3C//DTD SVG 1.1//EN" "http://www.w3.org/Graphics/SVG/1.1/DTD/svg11.dtd" [
	<!ENTITY ns_flows "http://ns.adobe.com/Flows/1.0/">
	<!ENTITY ns_extend "http://ns.adobe.com/Extensibility/1.0/">
	<!ENTITY ns_ai "http://ns.adobe.com/AdobeIllustrator/10.0/">
	<!ENTITY ns_graphs "http://ns.adobe.com/Graphs/1.0/">
	<!ENTITY ns_vars "http://ns.adobe.com/Variables/1.0/">
	<!ENTITY ns_imrep "http://ns.adobe.com/ImageReplacement/1.0/">
	<!ENTITY ns_sfw "http://ns.adobe.com/SaveForWeb/1.0/">
	<!ENTITY ns_custom "http://ns.adobe.com/GenericCustomNamespace/1.0/">
	<!ENTITY ns_adobe_xpath "http://ns.adobe.com/XPath/1.0/">
]>
<svg version="1.1" id="ICONE" xmlns:x="&ns_extend;" xmlns:i="&ns_ai;" xmlns:graph="&ns_graphs;"
	 xmlns="http://www.w3.org/2000/svg" xmlns:xlink="http://www.w3.org/1999/xlink" xmlns:a="http://ns.adobe.com/AdobeSVGViewerExtensions/3.0/"
	 x="0px" y="0px" width="256px" height="256px" viewBox="0 0 256 256" enable-background="new 0 0 256 256" xml:space="preserve">
<metadata>
	<sfw  xmlns="&ns_sfw;">
		<slices></slices>
		<sliceSourceBounds  width="2744" height="1348.5" bottomLeftOrigin="true" x="20.5" y="-1369"></sliceSourceBounds>
		<optimizationSettings>
			<targetSettings  fileFormat="PNG24Format" targetSettingsID="0">
				<PNG24Format  transparency="true" filtered="false" noMatteColor="false" matteColor="#FFFFFF" interlaced="false">
					</PNG24Format>
			</targetSettings>
		</optimizationSettings>
	</sfw>
</metadata>
<path fill="#BB1C24" d="M40.5,101.456c0-2.684,0-5.364,0-8.048c0.108-0.631,0.257-1.263,0.328-1.904
	c0.557-5.16,2.048-10.047,4.444-14.635c3.479-6.676,8.421-12.045,14.714-16.196c6.542-4.305,13.7-6.89,21.485-7.417
	c5.101-0.343,10.21-0.114,15.242,1.128c6.472,1.601,12.457,4.216,17.846,8.168c4.663,3.425,8.568,7.546,11.503,12.567
	c0.636,1.089,1.242,2.192,1.929,3.386c0.18-0.309,0.309-0.522,0.428-0.746c1.581-3.222,3.59-6.169,5.985-8.839
	c3.391-3.789,7.308-6.93,11.752-9.43c6.383-3.589,13.214-5.717,20.48-6.229c4.226-0.303,8.48-0.213,12.686,0.622
	c7.806,1.541,14.717,4.862,20.84,9.922c4.157,3.436,7.496,7.527,10.092,12.22c3.021,5.458,4.732,11.358,5.12,17.563
	c0.258,4.255,0.148,8.541-0.605,12.776c-1.124,6.293-3.153,12.278-5.897,18.03c-2.246,4.697-4.931,9.146-7.934,13.407
	c-3.279,4.663-6.879,9.073-10.836,13.164c-3.451,3.57-7.04,7.024-10.689,10.4c-3.488,3.236-7.077,6.373-10.737,9.42
	c-4.892,4.061-9.853,8.033-14.843,11.97c-6.831,5.389-13.721,10.717-20.581,16.072c-1.761,1.367-3.52,2.729-5.25,4.071
	c-0.258-0.179-0.437-0.284-0.597-0.408c-7.486-5.826-15.002-11.612-22.459-17.489c-5.598-4.424-11.165-8.898-16.653-13.456
	c-4.354-3.615-8.72-7.249-12.827-11.136c-4.492-4.254-8.847-8.689-12.983-13.288c-3.062-3.395-5.807-7.094-8.47-10.817
	c-3.173-4.449-5.777-9.251-7.975-14.262c-2.436-5.548-4.246-11.274-5.061-17.299C40.838,103.649,40.658,102.55,40.5,101.456z"/>
</svg>
