<?xml version="1.0" encoding="utf-8"?>
<!-- Generator: Adobe Illustrator 16.0.0, SVG Export Plug-In . SVG Version: 6.00 Build 0)  -->
<!DOCTYPE svg PUBLIC "-//W3C//DTD SVG 1.1//EN" "http://www.w3.org/Graphics/SVG/1.1/DTD/svg11.dtd">
<svg version="1.1" id="Layer_1" xmlns="http://www.w3.org/2000/svg" xmlns:xlink="http://www.w3.org/1999/xlink" x="0px" y="0px"
	 width="841.89px" height="595.28px" viewBox="0 0 841.89 595.28" enable-background="new 0 0 841.89 595.28" xml:space="preserve">
<path fill="#FFFFFF" d="M461.06,438.8c-64.481,0-116.941-52.459-116.941-116.94c0-64.481,52.459-116.94,116.941-116.94
	S578,257.378,578,321.859C578,386.341,525.541,438.8,461.06,438.8z"/>
<linearGradient id="SVGID_1_" gradientUnits="userSpaceOnUse" x1="447.5146" y1="321.8662" x2="500.6992" y2="321.8662">
	<stop  offset="0" style="stop-color:#1F2E46"/>
	<stop  offset="1" style="stop-color:#1F2E46"/>
</linearGradient>
<path fill="url(#SVGID_1_)" d="M500.554,356.473l-31.854-71.445c-0.002-0.003-1.076-2.218-4.105-2.218c-3.033,0-13.69,0-13.69,0
	s-4.214,0.281-3.243,4.449l31.855,71.447c0.002,0.003,1.076,2.218,4.104,2.218c3.033,0,13.691,0,13.691,0
	S501.524,360.643,500.554,356.473z"/>
<linearGradient id="SVGID_2_" gradientUnits="userSpaceOnUse" x1="421.4727" y1="321.8662" x2="474.6553" y2="321.8662">
	<stop  offset="0" style="stop-color:#1F2E46"/>
	<stop  offset="1" style="stop-color:#1F2E46"/>
</linearGradient>
<path fill="url(#SVGID_2_)" d="M474.51,356.473l-31.854-71.445c-0.002-0.003-1.076-2.218-4.105-2.218c-3.032,0-13.689,0-13.689,0
	s-4.214,0.281-3.244,4.449l31.855,71.447c0.002,0.003,1.076,2.218,4.105,2.218c3.032,0,13.69,0,13.69,0
	S475.482,360.643,474.51,356.473z"/>
<linearGradient id="SVGID_3_" gradientUnits="userSpaceOnUse" x1="458.6777" y1="281.8813" x2="436.7386" y2="332.7158">
	<stop  offset="0" style="stop-color:#F1BA2A"/>
	<stop  offset="0.414" style="stop-color:#F1BA2A"/>
</linearGradient>
<path fill="url(#SVGID_3_)" d="M465.044,282.654c0,0-10.659,0-13.691,0c-3.028,0-4.103,2.213-4.105,2.218l-2.62,5.735
	l-12.867,29.002l-16.366,36.705c-3.644-2.511-7.438-5.703-9.272-9.062c-4.116-7.538-1.809,28.767,6.29,40.855l0.018,0.031
	c14.399-2.093,42.891-24.711,34.538-22.715c-3.736,0.894-8.674,0.211-12.99-0.816l12.604-28.407l16.994-38.115l-0.014-0.006
	l4.198-9.417C470.288,282.984,465.044,282.654,465.044,282.654z"/>
<linearGradient id="SVGID_4_" gradientUnits="userSpaceOnUse" x1="386.9102" y1="386.2842" x2="423.2973" y2="305.4833">
	<stop  offset="0" style="stop-color:#F1BA2A"/>
	<stop  offset="0.414" style="stop-color:#F1BA2A"/>
</linearGradient>
<path fill="url(#SVGID_4_)" d="M402.825,345.596c0.716-1.343,1.859-1.487,2.318-1.487c1.682,0,2.555,1.6,2.843,2.126
	c1.003,1.838,2.868,3.873,5.463,5.982l24.135-54.131l-0.014-0.006l4.197-9.417c2.529-5.678-2.715-6.008-2.715-6.008
	s-10.658,0-13.691,0c-3.028,0-4.103,2.213-4.104,2.218l-36.792,82.518l0.014,0.007l-4.199,9.418
	c-2.529,5.678,2.716,6.009,2.716,6.009s10.657,0,13.69,0c3.03,0,4.104-2.215,4.105-2.218l3.694-8.285
	C401.987,360.875,401.301,348.451,402.825,345.596z"/>
<linearGradient id="SVGID_5_" gradientUnits="userSpaceOnUse" x1="463.0723" y1="360.0898" x2="491.2506" y2="296.5604">
	<stop  offset="0" style="stop-color:#F1BA2A"/>
	<stop  offset="0.414" style="stop-color:#F1BA2A"/>
</linearGradient>
<path fill="url(#SVGID_5_)" d="M456.84,361.03c0,0,10.657,0,13.69,0c3.029,0,4.104-2.214,4.105-2.218l2.559-5.736l12.93-29.003
	l16.364-36.706c3.646,2.513,7.438,5.705,9.272,9.063c4.116,7.538,1.809-28.768-6.289-40.856l-0.017-0.031
	c-14.4,2.092-42.892,24.711-34.539,22.713c3.737-0.894,8.674-0.211,12.99,0.816l-12.603,28.408l-16.995,38.116l0.014,0.006
	l-4.197,9.417C451.596,360.699,456.84,361.03,456.84,361.03z"/>
<linearGradient id="SVGID_6_" gradientUnits="userSpaceOnUse" x1="532.8574" y1="261.1348" x2="498.8487" y2="338.1358">
	<stop  offset="0" style="stop-color:#F1BA2A"/>
	<stop  offset="0.414" style="stop-color:#F1BA2A"/>
</linearGradient>
<path fill="url(#SVGID_6_)" d="M519.059,298.086c-0.716,1.344-1.859,1.488-2.319,1.488c-1.681,0-2.555-1.6-2.843-2.125
	c-1.003-1.837-2.868-3.874-5.462-5.982L484.3,345.598l0.014,0.006l-4.198,9.417c-2.529,5.679,2.715,6.01,2.715,6.01
	s10.658,0,13.691,0c3.028,0,4.104-2.214,4.105-2.218l36.791-82.519l-0.014-0.006l4.198-9.419c2.529-5.677-2.715-6.009-2.715-6.009
	s-10.658,0-13.691,0c-3.028,0-4.104,2.216-4.105,2.218l-3.693,8.286C519.896,282.809,520.583,295.231,519.059,298.086z"/>
<linearGradient id="SVGID_7_" gradientUnits="userSpaceOnUse" x1="505.8086" y1="207.6357" x2="522.8086" y2="207.6357" gradientTransform="matrix(0 1 -1 0 668.9141 -283.8892)">
	<stop  offset="0" style="stop-color:#1F2E46"/>
	<stop  offset="1" style="stop-color:#1F2E46"/>
</linearGradient>
<path fill="url(#SVGID_7_)" d="M461.278,238.919c-2.012,0-3.641-0.342-3.641-0.763v-15.474c0-0.422,1.629-0.764,3.641-0.764l0,0
	c2.01,0,3.641,0.342,3.641,0.764v15.474C464.919,238.578,463.288,238.919,461.278,238.919L461.278,238.919z"/>
<linearGradient id="SVGID_8_" gradientUnits="userSpaceOnUse" x1="688.6885" y1="207.6357" x2="705.6885" y2="207.6357" gradientTransform="matrix(0 1 -1 0 668.9141 -283.8892)">
	<stop  offset="0" style="stop-color:#1F2E46"/>
	<stop  offset="1" style="stop-color:#1F2E46"/>
</linearGradient>
<path fill="url(#SVGID_8_)" d="M461.278,421.799c-2.012,0-3.641-0.342-3.641-0.762v-15.475c0-0.422,1.629-0.764,3.641-0.764l0,0
	c2.01,0,3.641,0.342,3.641,0.764v15.475C464.919,421.457,463.288,421.799,461.278,421.799L461.278,421.799z"/>
<linearGradient id="SVGID_9_" gradientUnits="userSpaceOnUse" x1="563.4082" y1="162.957" x2="580.4082" y2="162.957" gradientTransform="matrix(-1 0 0 -1 1124.0254 484.8164)">
	<stop  offset="0" style="stop-color:#1F2E46"/>
	<stop  offset="1" style="stop-color:#1F2E46"/>
</linearGradient>
<path fill="url(#SVGID_9_)" d="M543.617,321.859c0-2.012,0.342-3.641,0.762-3.641h15.475c0.422,0,0.764,1.629,0.764,3.641l0,0
	c0,2.01-0.342,3.641-0.764,3.641h-15.475C543.959,325.5,543.617,323.869,543.617,321.859L543.617,321.859z"/>
<linearGradient id="SVGID_10_" gradientUnits="userSpaceOnUse" x1="264.3965" y1="343.0918" x2="308.0688" y2="343.0918">
	<stop  offset="0" style="stop-color:#F1BA2A"/>
	<stop  offset="0.414" style="stop-color:#F1BA2A"/>
</linearGradient>
<path fill="url(#SVGID_10_)" d="M308.069,343.092c0-2.643-1.471-4.448-2.717-5.354h-38.235c-1.247,0.906-2.72,2.711-2.72,5.354
	s1.473,4.449,2.72,5.355h38.235C306.598,347.541,308.069,345.734,308.069,343.092z"/>
<linearGradient id="SVGID_11_" gradientUnits="userSpaceOnUse" x1="299.0215" y1="378.498" x2="325.8188" y2="378.498">
	<stop  offset="0" style="stop-color:#1F2E46"/>
	<stop  offset="1" style="stop-color:#1F2E46"/>
</linearGradient>
<path fill="url(#SVGID_11_)" d="M325.819,378.498c0-2.643-1.471-4.448-2.717-5.354h-21.36c-1.247,0.906-2.72,2.711-2.72,5.354
	s1.473,4.449,2.72,5.355h21.36C324.348,382.947,325.819,381.141,325.819,378.498z"/>
<linearGradient id="SVGID_12_" gradientUnits="userSpaceOnUse" x1="336.2949" y1="378.498" x2="369.0688" y2="378.498">
	<stop  offset="0" style="stop-color:#1F2E46"/>
	<stop  offset="1" style="stop-color:#1F2E46"/>
</linearGradient>
<path fill="url(#SVGID_12_)" d="M369.069,378.498c0-2.643-1.471-4.448-2.717-5.354h-27.337c-1.247,0.906-2.72,2.711-2.72,5.354
	s1.473,4.449,2.72,5.355h27.337C367.598,382.947,369.069,381.141,369.069,378.498z"/>
<linearGradient id="SVGID_13_" gradientUnits="userSpaceOnUse" x1="333.1895" y1="410.4863" x2="398.2827" y2="410.4863">
	<stop  offset="0" style="stop-color:#1F2E46"/>
	<stop  offset="1" style="stop-color:#1F2E46"/>
</linearGradient>
<path fill="url(#SVGID_13_)" d="M395.72,410.486c0-2.951-0.755-4.872-1.209-5.354H365.52h-28.014h-1.596
	c-1.247,0.906-2.72,2.711-2.72,5.354s1.473,4.449,2.72,5.355h1.596h28.014h32.763C396.949,414.425,395.72,412.602,395.72,410.486z"
	/>
<linearGradient id="SVGID_14_" gradientUnits="userSpaceOnUse" x1="454.1094" y1="192.8716" x2="468.4482" y2="192.8716">
	<stop  offset="0" style="stop-color:#F1BA2A"/>
	<stop  offset="0.414" style="stop-color:#F1BA2A"/>
</linearGradient>
<rect x="454.109" y="185.254" fill="url(#SVGID_14_)" width="14.339" height="15.235"/>
<linearGradient id="SVGID_15_" gradientUnits="userSpaceOnUse" x1="436.0566" y1="167.9072" x2="486.5" y2="167.9072">
	<stop  offset="0" style="stop-color:#F1BA2A"/>
	<stop  offset="0.414" style="stop-color:#F1BA2A"/>
</linearGradient>
<path fill="url(#SVGID_15_)" d="M447.283,180.396c-6.086,0-11.227-3.841-11.227-8.389v-8.2c0-4.547,5.141-8.389,11.227-8.389h27.99
	c6.085,0,11.227,3.841,11.227,8.389v8.2c0,4.547-5.142,8.389-11.227,8.389H447.283z"/>
<linearGradient id="SVGID_16_" gradientUnits="userSpaceOnUse" x1="345.1924" y1="255.4653" x2="545.2266" y2="255.4653">
	<stop  offset="0" style="stop-color:#F1BA2A"/>
	<stop  offset="0.414" style="stop-color:#F1BA2A"/>
</linearGradient>
<path fill="url(#SVGID_16_)" d="M461.06,215.919c29.523,0,56.223,12.082,75.435,31.565l8.732-6.801
	c-21.269-22.047-51.114-35.765-84.167-35.765c-59.208,0-108.132,44.005-115.867,101.093H356.3
	C363.949,255.021,407.937,215.919,461.06,215.919z"/>
<linearGradient id="SVGID_17_" gradientUnits="userSpaceOnUse" x1="563.9629" y1="266.2651" x2="563.9629" y2="266.2651">
	<stop  offset="0" style="stop-color:#1F2E46"/>
	<stop  offset="1" style="stop-color:#1F2E46"/>
</linearGradient>
<path fill="url(#SVGID_17_)" d="M563.963,266.265"/>
<linearGradient id="SVGID_18_" gradientUnits="userSpaceOnUse" x1="554.0664" y1="269.8813" x2="564.3125" y2="269.8813">
	<stop  offset="0" style="stop-color:#1F2E46"/>
	<stop  offset="1" style="stop-color:#1F2E46"/>
</linearGradient>
<path fill="url(#SVGID_18_)" d="M563.963,266.265c0,0-1.411-4.019-5.813-0.614l-2.773,1.995c0,0-2.786,1.903-0.229,5.485
	s5.959,2.005,5.959,2.005l3.207-3.466L563.963,266.265z"/>
<linearGradient id="SVGID_19_" gradientUnits="userSpaceOnUse" x1="536.2295" y1="244.1035" x2="546.2871" y2="244.1035" gradientTransform="matrix(1.002 -0.05 0.0542 0.9698 -14.2305 34.1235)">
	<stop  offset="0" style="stop-color:#F1BA2A"/>
	<stop  offset="0.414" style="stop-color:#F1BA2A"/>
</linearGradient>
<path fill="url(#SVGID_19_)" d="M536.494,247.484c0,0,2.412,3.391,5.62,0.618l2.533-2.107c0,0,3.426-2.089,0.579-5.311
	c-2.758-3.121-5.633-1.973-5.633-1.973l-3.251,3.271L536.494,247.484z"/>
<linearGradient id="SVGID_20_" gradientUnits="userSpaceOnUse" x1="345.7104" y1="305.7598" x2="355.7153" y2="305.7598" gradientTransform="matrix(0.7805 0.6104 -0.6116 0.7816 264.4785 -146.8682)">
	<stop  offset="0" style="stop-color:#F1BA2A"/>
	<stop  offset="0.414" style="stop-color:#F1BA2A"/>
</linearGradient>
<path fill="url(#SVGID_20_)" d="M345.4,305.567c0,0-1.91,4.11,3.542,4.531l3.327,0.015c0,0,3.325,0.759,3.996-3.565
	c0.669-4.325-2.858-5.371-2.858-5.371l-4.653,0.416L345.4,305.567z"/>
<linearGradient id="SVGID_21_" gradientUnits="userSpaceOnUse" x1="345.1924" y1="352.5322" x2="578" y2="352.5322">
	<stop  offset="0" style="stop-color:#1F2E46"/>
	<stop  offset="1" style="stop-color:#1F2E46"/>
</linearGradient>
<path fill="url(#SVGID_21_)" d="M563.963,266.265l-8.816,6.866C562.718,287.719,567,304.288,567,321.859
	c0,58.51-47.432,105.94-105.94,105.94c-51.507,0-94.424-36.758-103.96-85.473c-0.001-0.004-0.002-0.008-0.003-0.012
	c-0.916-4.222-5.846-4.608-5.846-4.608h-6.058C352.928,394.794,401.851,438.8,461.06,438.8c64.584,0,116.94-52.356,116.94-116.94
	C578,301.736,572.915,282.8,563.963,266.265z"/>
<linearGradient id="SVGID_22_" gradientUnits="userSpaceOnUse" x1="316.2617" y1="343.0918" x2="347.625" y2="343.0918">
	<stop  offset="0" style="stop-color:#1F2E46"/>
	<stop  offset="1" style="stop-color:#1F2E46"/>
</linearGradient>
<path fill="url(#SVGID_22_)" d="M347.625,337.737h-28.643c-1.247,0.906-2.72,2.711-2.72,5.354s1.473,4.449,2.72,5.355h28.643
	V337.737z"/>
</svg>
